<?xml version="1.0" standalone="no"?>
<!DOCTYPE svg PUBLIC "-//W3C//DTD SVG 20010904//EN"
 "http://www.w3.org/TR/2001/REC-SVG-20010904/DTD/svg10.dtd">
<svg version="1.0" xmlns="http://www.w3.org/2000/svg"
 width="225.000000pt" height="225.000000pt" viewBox="0 0 225.000000 225.000000"
 preserveAspectRatio="xMidYMid meet">

<g transform="translate(0.000000,225.000000) scale(0.100000,-0.100000)"
fill="#000000" stroke="none">
<path d="M207 2042 c-191 -192 -207 -211 -198 -233 5 -13 46 -111 91 -218 l82
-194 -17 -85 c-26 -129 -17 -346 19 -466 102 -339 368 -591 716 -679 67 -16
114 -21 225 -20 77 0 160 5 185 11 43 11 53 8 282 -73 131 -47 243 -82 250
-79 14 6 385 412 398 435 5 9 -23 96 -76 234 -53 138 -83 228 -79 242 3 12 9
62 14 112 23 217 -35 457 -152 631 l-37 54 45 46 c25 25 45 50 45 56 0 15
-164 174 -180 174 -8 0 -33 -19 -56 -41 l-42 -41 -44 30 c-207 142 -485 199
-733 151 -48 -9 -57 -7 -280 76 -126 47 -235 85 -240 85 -6 0 -104 -94 -218
-208z m297 112 l48 -17 -208 -208 c-115 -115 -211 -209 -215 -209 -3 0 -15 21
-26 48 l-20 47 176 178 c97 97 181 177 187 177 6 0 32 -7 58 -16z m167 -63
c30 -10 68 -24 84 -31 l30 -12 -51 -21 c-95 -41 -187 -102 -266 -176 -98 -92
-156 -166 -213 -273 -41 -77 -44 -81 -53 -58 -6 14 -20 47 -32 74 l-21 50 233
233 c128 128 233 233 234 233 0 0 25 -9 55 -19z m684 -80 c620 -162 884 -894
510 -1416 -279 -390 -805 -499 -1219 -253 -38 22 -105 75 -149 117 -280 266
-362 667 -210 1028 115 272 392 488 695 542 84 16 281 6 373 -18z m515 -146
l44 -45 -25 -25 -25 -25 -43 44 c-43 43 -43 44 -26 70 10 14 20 26 24 26 4 0
27 -20 51 -45z m209 -1158 l21 -59 -24 -29 c-14 -16 -120 -130 -237 -253
l-211 -224 -67 24 c-36 14 -73 27 -81 31 -10 3 8 15 48 34 204 92 381 266 477
467 22 45 42 78 46 74 4 -4 16 -33 28 -65z m73 -195 l18 -46 -38 -41 c-21 -22
-92 -98 -157 -170 -65 -72 -127 -140 -139 -152 -21 -22 -22 -23 -74 -6 -28 9
-52 20 -52 24 0 11 414 448 420 443 2 -3 12 -26 22 -52z"/>
<path d="M1039 1918 c-276 -21 -541 -214 -649 -475 -86 -206 -81 -453 15 -660
203 -440 746 -615 1158 -372 86 51 227 190 276 273 199 337 120 780 -184 1039
-175 149 -378 214 -616 195z m280 -88 c88 -25 178 -69 249 -122 l54 -40 -32
-33 c-56 -58 -13 -101 45 -45 l33 32 46 -58 c62 -79 110 -173 138 -269 34
-117 32 -308 -4 -417 -28 -85 -81 -185 -126 -238 l-30 -35 -29 28 c-60 56
-108 19 -51 -40 l33 -35 -40 -34 c-22 -19 -75 -52 -117 -74 -249 -131 -563
-101 -795 74 -35 26 -63 51 -63 55 0 4 11 18 25 31 29 27 31 73 3 78 -9 2 -32
-11 -51 -28 l-35 -30 -48 72 c-179 269 -172 629 17 868 l41 52 33 -32 c58 -56
101 -13 46 44 l-32 33 43 35 c174 141 422 190 647 128z"/>
<path d="M1101 1636 c-9 -11 -12 -90 -12 -286 0 -149 3 -276 6 -281 4 -5 71
-9 151 -9 81 0 144 -4 144 -9 0 -14 63 -26 68 -12 2 6 29 11 65 11 73 0 90 9
85 41 l-3 24 -222 3 -223 2 0 253 c0 254 -3 277 -36 277 -6 0 -17 -6 -23 -14z"/>
<path d="M1002 1401 c-34 -18 -34 -15 3 -69 2 -1 14 3 29 9 20 10 25 17 20 33
-13 43 -17 45 -52 27z"/>
<path d="M1187 1393 c-6 -31 -2 -38 29 -47 17 -5 24 0 34 24 15 36 14 38 -27
46 -27 5 -31 3 -36 -23z"/>
<path d="M1286 1365 c-21 -32 -20 -38 5 -54 19 -11 24 -10 46 12 l25 24 -30
22 -30 21 -16 -25z"/>
<path d="M912 1344 c-28 -20 -28 -38 2 -57 22 -15 25 -14 44 6 20 21 20 23 2
45 -22 26 -20 26 -48 6z"/>
<path d="M1361 1291 c-24 -18 -24 -20 -8 -45 17 -25 19 -26 47 -11 30 15 30
16 15 45 -18 35 -22 36 -54 11z"/>
<path d="M840 1249 c-14 -32 -9 -43 27 -54 18 -5 25 -1 35 20 11 24 9 29 -12
46 -33 25 -35 24 -50 -12z"/>
<path d="M1408 1199 c-22 -9 -25 -14 -19 -37 6 -23 12 -26 37 -24 37 5 37 5
29 41 -7 34 -8 34 -47 20z"/>
<path d="M815 1162 c-3 -3 -5 -20 -5 -39 0 -30 3 -33 29 -33 50 0 60 65 11 72
-17 3 -32 2 -35 0z"/>
<path d="M815 1060 c-4 -6 -4 -24 0 -40 6 -27 8 -28 36 -18 23 8 29 16 29 39
0 25 -4 29 -29 29 -17 0 -33 -5 -36 -10z"/>
<path d="M1371 983 c-11 -24 -10 -29 11 -45 31 -24 32 -23 51 16 l16 34 -31
11 c-17 6 -32 11 -33 11 -1 0 -7 -12 -14 -27z"/>
<path d="M867 964 l-28 -15 22 -30 22 -31 24 25 c22 22 23 27 12 46 -16 25
-16 25 -52 5z"/>
<path d="M1315 910 c-17 -18 -17 -21 -1 -45 18 -27 38 -24 65 8 10 12 6 19
-17 36 -29 20 -30 20 -47 1z"/>
<path d="M929 884 l-24 -25 25 -19 c33 -26 45 -25 58 5 15 33 16 30 -12 48
-22 15 -25 14 -47 -9z"/>
<path d="M1233 860 c-20 -8 -21 -12 -12 -40 6 -16 15 -30 21 -30 8 0 47 17 56
25 5 5 -29 55 -37 54 -3 0 -16 -4 -28 -9z"/>
<path d="M1020 834 c-14 -36 -13 -41 13 -48 38 -10 45 -7 49 25 4 25 1 32 -19
40 -33 12 -32 12 -43 -17z"/>
<path d="M1120 806 c0 -35 1 -36 36 -36 34 0 35 1 32 33 -3 28 -7 32 -35 35
-32 3 -33 2 -33 -32z"/>
</g>
</svg>
